<?xml version="1.0" encoding="UTF-8" standalone="no"?><svg xmlns="http://www.w3.org/2000/svg" xmlns:xlink="http://www.w3.org/1999/xlink" clip-rule="evenodd" stroke-miterlimit="4.00" viewBox="0 0 1024 768"><desc>SVG generated by Keynote</desc><defs></defs><g transform="matrix(1.00, 0.00, -0.00, -1.00, 0.0, 768.0)"><g><clipPath id="clip-7"><path d="M 0.0 768.0 L 1024.0 768.0 L 1024.0 0.0 L 0.0 0.0 Z M 0.0 768.0 "></path></clipPath><g clip-path="url(#clip-7)"><image xlink:href="../../23FA9627-2129-429F-B2C7-641C00C1D996/assets/D3CB8578D364082F6943B53F933CCC32.jpeg" width="1024.00" height="768.00" transform="matrix(1.00, 0.00, -0.00, -1.00, 0.0, 768.0)"></image></g></g><text xml:space="preserve" font-family="GillSans-Light" font-size="72.0" fill="#525252" transform="matrix(1.00, 0.00, -0.00, -1.00, 263.0, 628.0)">A</text><text xml:space="preserve" font-family="GillSans-Light" font-size="72.0" fill="#525252" transform="matrix(1.00, 0.00, -0.00, -1.00, 311.0, 628.0)">R</text><text xml:space="preserve" font-family="GillSans-Light" font-size="72.0" fill="#525252" transform="matrix(1.00, 0.00, -0.00, -1.00, 352.3, 628.0)">C</text><text xml:space="preserve" font-family="GillSans-Light" font-size="72.0" fill="#525252" transform="matrix(1.00, 0.00, -0.00, -1.00, 401.0, 628.0)">H</text><text xml:space="preserve" font-family="GillSans-Light" font-size="72.0" fill="#525252" transform="matrix(1.00, 0.00, -0.00, -1.00, 452.8, 628.0)">I</text><text xml:space="preserve" font-family="GillSans-Light" font-size="72.0" fill="#525252" transform="matrix(1.00, 0.00, -0.00, -1.00, 467.8, 628.0)">T</text><text xml:space="preserve" font-family="GillSans-Light" font-size="72.0" fill="#525252" transform="matrix(1.00, 0.00, -0.00, -1.00, 509.1, 628.0)">E</text><text xml:space="preserve" font-family="GillSans-Light" font-size="72.0" fill="#525252" transform="matrix(1.00, 0.00, -0.00, -1.00, 544.4, 628.0)">C</text><text xml:space="preserve" font-family="GillSans-Light" font-size="72.0" fill="#525252" transform="matrix(1.00, 0.00, -0.00, -1.00, 593.1, 628.0)">T</text><text xml:space="preserve" font-family="GillSans-Light" font-size="72.0" fill="#525252" transform="matrix(1.00, 0.00, -0.00, -1.00, 634.4, 628.0)">U</text><text xml:space="preserve" font-family="GillSans-Light" font-size="72.0" fill="#525252" transform="matrix(1.00, 0.00, -0.00, -1.00, 684.7, 628.0)">R</text><text xml:space="preserve" font-family="GillSans-Light" font-size="72.0" fill="#525252" transform="matrix(1.00, 0.00, -0.00, -1.00, 726.0, 628.0)">E</text><text xml:space="preserve" font-family="GillSans-Light" font-size="31.2" fill="#525252" transform="matrix(1.00, 0.00, -0.00, -1.00, 47.0, 376.1)">•</text><text xml:space="preserve" font-family="GillSans-Light" font-size="38.0" fill="#525252" transform="matrix(1.00, 0.00, -0.00, -1.00, 81.0, 374.0)">I</text><text xml:space="preserve" font-family="GillSans-Light" font-size="38.0" fill="#525252" transform="matrix(1.00, 0.00, -0.00, -1.00, 88.9, 374.0)">o</text><text xml:space="preserve" font-family="GillSans-Light" font-size="38.0" fill="#525252" transform="matrix(1.00, 0.00, -0.00, -1.00, 109.5, 374.0)">n</text><text xml:space="preserve" font-family="GillSans-Light" font-size="38.0" fill="#525252" transform="matrix(1.00, 0.00, -0.00, -1.00, 128.1, 374.0)">i</text><text xml:space="preserve" font-family="GillSans-Light" font-size="38.0" fill="#525252" transform="matrix(1.00, 0.00, -0.00, -1.00, 135.3, 374.0)">c</text><text xml:space="preserve" font-family="GillSans-Light" font-size="31.2" fill="#525252" transform="matrix(1.00, 0.00, -0.00, -1.00, 47.0, 295.1)">•</text><text xml:space="preserve" font-family="GillSans-Light" font-size="38.0" fill="#525252" transform="matrix(1.00, 0.00, -0.00, -1.00, 81.0, 293.0)">A</text><text xml:space="preserve" font-family="GillSans-Light" font-size="38.0" fill="#525252" transform="matrix(1.00, 0.00, -0.00, -1.00, 106.3, 293.0)">n</text><text xml:space="preserve" font-family="GillSans-Light" font-size="38.0" fill="#525252" transform="matrix(1.00, 0.00, -0.00, -1.00, 125.0, 293.0)">g</text><text xml:space="preserve" font-family="GillSans-Light" font-size="38.0" fill="#525252" transform="matrix(1.00, 0.00, -0.00, -1.00, 141.2, 293.0)">u</text><text xml:space="preserve" font-family="GillSans-Light" font-size="38.0" fill="#525252" transform="matrix(1.00, 0.00, -0.00, -1.00, 159.8, 293.0)">l</text><text xml:space="preserve" font-family="GillSans-Light" font-size="38.0" fill="#525252" transform="matrix(1.00, 0.00, -0.00, -1.00, 167.0, 293.0)">a</text><text xml:space="preserve" font-family="GillSans-Light" font-size="38.0" fill="#525252" transform="matrix(1.00, 0.00, -0.00, -1.00, 183.2, 293.0)">r</text><text xml:space="preserve" font-family="GillSans-Light" font-size="31.2" fill="#525252" transform="matrix(1.00, 0.00, -0.00, -1.00, 47.0, 214.1)">•</text><text xml:space="preserve" font-family="GillSans-Light" font-size="38.0" fill="#525252" transform="matrix(1.00, 0.00, -0.00, -1.00, 81.0, 212.0)">J</text><text xml:space="preserve" font-family="GillSans-Light" font-size="38.0" fill="#525252" transform="matrix(1.00, 0.00, -0.00, -1.00, 88.9, 212.0)">a</text><text xml:space="preserve" font-family="GillSans-Light" font-size="38.0" fill="#525252" transform="matrix(1.00, 0.00, -0.00, -1.00, 104.2, 212.0)">v</text><text xml:space="preserve" font-family="GillSans-Light" font-size="38.0" fill="#525252" transform="matrix(1.00, 0.00, -0.00, -1.00, 120.4, 212.0)">a</text><text xml:space="preserve" font-family="GillSans-Light" font-size="38.0" fill="#525252" transform="matrix(1.00, 0.00, -0.00, -1.00, 136.6, 212.0)">S</text><text xml:space="preserve" font-family="GillSans-Light" font-size="38.0" fill="#525252" transform="matrix(1.00, 0.00, -0.00, -1.00, 154.4, 212.0)">c</text><text xml:space="preserve" font-family="GillSans-Light" font-size="38.0" fill="#525252" transform="matrix(1.00, 0.00, -0.00, -1.00, 170.3, 212.0)">r</text><text xml:space="preserve" font-family="GillSans-Light" font-size="38.0" fill="#525252" transform="matrix(1.00, 0.00, -0.00, -1.00, 183.9, 212.0)">i</text><text xml:space="preserve" font-family="GillSans-Light" font-size="38.0" fill="#525252" transform="matrix(1.00, 0.00, -0.00, -1.00, 191.0, 212.0)">p</text><text xml:space="preserve" font-family="GillSans-Light" font-size="38.0" fill="#525252" transform="matrix(1.00, 0.00, -0.00, -1.00, 210.4, 212.0)">t</text><image xlink:href="../../23FA9627-2129-429F-B2C7-641C00C1D996/assets/774EC2B7B16DB6C5F42D07BEA6EDB858.png" width="146.00" height="146.00" transform="matrix(1.00, 0.00, -0.00, -1.00, 57.0, 583.0)"></image><image xlink:href="../../23FA9627-2129-429F-B2C7-641C00C1D996/assets/FCC443E3D79E49CDBFE3343DBF274DA2.png" width="239.00" height="127.00" transform="matrix(1.00, 0.00, -0.00, -1.01, 717.0, 574.0)"></image><text xml:space="preserve" font-family="GillSans-Light" font-size="31.2" fill="#525252" transform="matrix(1.00, 0.00, -0.00, -1.00, 679.7, 376.1)">•</text><text xml:space="preserve" font-family="GillSans-Light" font-size="38.0" fill="#525252" transform="matrix(1.00, 0.00, -0.00, -1.00, 714.0, 374.0)">Z</text><text xml:space="preserve" font-family="GillSans-Light" font-size="38.0" fill="#525252" transform="matrix(1.00, 0.00, -0.00, -1.00, 738.1, 374.0)">e</text><text xml:space="preserve" font-family="GillSans-Light" font-size="38.0" fill="#525252" transform="matrix(1.00, 0.00, -0.00, -1.00, 756.3, 374.0)">n</text><text xml:space="preserve" font-family="GillSans-Light" font-size="38.0" fill="#525252" transform="matrix(1.00, 0.00, -0.00, -1.00, 775.0, 374.0)">d</text><text xml:space="preserve" font-family="GillSans-Light" font-size="38.0" fill="#525252" transform="matrix(1.00, 0.00, -0.00, -1.00, 794.3, 374.0)"> </text><text xml:space="preserve" font-family="GillSans-Light" font-size="38.0" fill="#525252" transform="matrix(1.00, 0.00, -0.00, -1.00, 804.9, 374.0)">F</text><text xml:space="preserve" font-family="GillSans-Light" font-size="38.0" fill="#525252" transform="matrix(1.00, 0.00, -0.00, -1.00, 821.5, 374.0)">r</text><text xml:space="preserve" font-family="GillSans-Light" font-size="38.0" fill="#525252" transform="matrix(1.00, 0.00, -0.00, -1.00, 835.1, 374.0)">a</text><text xml:space="preserve" font-family="GillSans-Light" font-size="38.0" fill="#525252" transform="matrix(1.00, 0.00, -0.00, -1.00, 851.3, 374.0)">m</text><text xml:space="preserve" font-family="GillSans-Light" font-size="38.0" fill="#525252" transform="matrix(1.00, 0.00, -0.00, -1.00, 880.6, 374.0)">e</text><text xml:space="preserve" font-family="GillSans-Light" font-size="38.0" fill="#525252" transform="matrix(1.00, 0.00, -0.00, -1.00, 898.8, 374.0)">w</text><text xml:space="preserve" font-family="GillSans-Light" font-size="38.0" fill="#525252" transform="matrix(1.00, 0.00, -0.00, -1.00, 925.1, 374.0)">o</text><text xml:space="preserve" font-family="GillSans-Light" font-size="38.0" fill="#525252" transform="matrix(1.00, 0.00, -0.00, -1.00, 945.7, 374.0)">r</text><text xml:space="preserve" font-family="GillSans-Light" font-size="38.0" fill="#525252" transform="matrix(1.00, 0.00, -0.00, -1.00, 959.9, 374.0)">k</text><text xml:space="preserve" font-family="GillSans-Light" font-size="38.0" fill="#525252" transform="matrix(1.00, 0.00, -0.00, -1.00, 976.1, 374.0)"> </text><text xml:space="preserve" font-family="GillSans-Light" font-size="38.0" fill="#525252" transform="matrix(1.00, 0.00, -0.00, -1.00, 986.7, 374.0)">2</text><text xml:space="preserve" font-family="GillSans-Light" font-size="31.2" fill="#525252" transform="matrix(1.00, 0.00, -0.00, -1.00, 679.7, 295.1)">•</text><text xml:space="preserve" font-family="GillSans-Light" font-size="38.0" fill="#525252" transform="matrix(1.00, 0.00, -0.00, -1.00, 714.0, 293.0)">P</text><text xml:space="preserve" font-family="GillSans-Light" font-size="38.0" fill="#525252" transform="matrix(1.00, 0.00, -0.00, -1.00, 733.4, 293.0)">H</text><text xml:space="preserve" font-family="GillSans-Light" font-size="38.0" fill="#525252" transform="matrix(1.00, 0.00, -0.00, -1.00, 760.7, 293.0)">P</text><text xml:space="preserve" font-family="GillSans-Light" font-size="31.2" fill="#525252" transform="matrix(1.00, 0.00, -0.00, -1.00, 679.7, 214.1)">•</text><text xml:space="preserve" font-family="GillSans-Light" font-size="38.0" fill="#525252" transform="matrix(1.00, 0.00, -0.00, -1.00, 714.0, 212.0)">M</text><text xml:space="preserve" font-family="GillSans-Light" font-size="38.0" fill="#525252" transform="matrix(1.00, 0.00, -0.00, -1.00, 743.7, 212.0)">y</text><text xml:space="preserve" font-family="GillSans-Light" font-size="38.0" fill="#525252" transform="matrix(1.00, 0.00, -0.00, -1.00, 759.5, 212.0)">S</text><text xml:space="preserve" font-family="GillSans-Light" font-size="38.0" fill="#525252" transform="matrix(1.00, 0.00, -0.00, -1.00, 777.3, 212.0)">Q</text><text xml:space="preserve" font-family="GillSans-Light" font-size="38.0" fill="#525252" transform="matrix(1.00, 0.00, -0.00, -1.00, 808.6, 212.0)">L</text><g><clipPath id="clip-8"><path d="M 356.0 547.0 L 594.0 547.0 L 594.0 472.0 L 356.0 472.0 Z M 355.5 546.8 "></path></clipPath><g clip-path="url(#clip-8)"><g><clipPath id="clip-9"><path d="M 576.5 546.8 C 573.7 546.8 572.5 546.2 571.9 544.5 C 571.1 541.8 572.0 539.9 574.2 539.9 C 577.3 539.9 578.7 536.2 579.0 527.1 C 579.4 515.7 579.9 514.2 583.6 512.5 L 586.6 511.1 L 583.3 507.6 C 580.3 504.5 579.9 503.0 578.8 492.5 C 577.8 482.0 577.4 480.7 575.1 479.7 C 571.9 478.2 570.9 475.8 572.7 473.6 C 574.4 471.6 581.3 472.4 583.8 474.9 C 585.9 477.0 587.3 484.6 587.4 493.8 C 587.5 500.3 587.8 501.4 590.9 504.5 C 592.8 506.4 594.3 509.1 594.3 510.5 C 594.3 512.0 593.0 514.1 590.9 515.6 C 587.7 518.0 587.5 518.6 587.4 525.9 C 587.4 540.8 584.3 546.8 576.5 546.8 Z M 372.9 546.1 C 370.2 546.0 367.2 545.3 366.3 544.4 C 364.3 542.3 362.3 532.5 362.3 524.4 C 362.3 519.0 361.9 517.9 358.9 515.4 C 354.4 511.6 354.4 507.8 358.7 505.3 C 361.9 503.5 362.0 503.2 362.5 491.5 C 363.1 478.9 364.4 475.0 368.4 473.3 C 369.8 472.7 372.5 472.4 374.4 472.5 C 377.2 472.7 377.9 473.3 378.2 475.9 C 378.5 478.4 378.1 479.1 376.4 479.1 C 372.6 479.1 371.5 481.5 371.5 489.9 C 371.5 499.5 370.2 504.9 366.8 508.4 C 364.8 510.6 364.7 511.1 366.1 511.9 C 369.2 513.8 370.9 518.7 371.5 528.4 C 372.1 537.7 372.2 538.2 375.3 539.7 C 377.6 540.8 378.4 541.9 378.2 543.7 C 377.9 545.9 377.1 546.2 372.9 546.1 Z M 439.2 535.2 C 432.3 535.3 426.0 532.6 423.7 528.3 C 421.7 524.4 421.6 517.3 423.5 514.0 C 425.5 510.6 429.7 505.5 430.5 505.5 C 432.4 505.5 442.7 498.2 442.7 496.9 C 442.7 496.0 441.3 494.2 439.6 492.8 C 436.2 490.1 432.5 490.3 426.3 493.4 C 421.5 495.8 420.9 495.6 420.9 491.6 C 420.9 487.0 426.1 481.7 432.0 480.3 C 438.4 478.8 438.6 478.8 445.4 481.4 C 450.6 483.3 452.1 484.5 454.3 488.8 C 456.8 493.4 456.9 494.2 455.5 498.2 C 452.7 506.1 449.9 509.5 443.4 512.8 C 434.9 517.1 433.8 518.6 436.5 521.7 C 438.5 523.8 439.5 524.0 445.9 523.4 C 452.3 522.7 453.0 522.8 453.0 524.7 C 452.8 528.2 449.0 533.5 446.1 534.3 C 443.8 534.9 441.5 535.2 439.2 535.2 Z M 481.6 535.0 C 471.5 534.3 466.0 530.9 462.3 523.1 C 458.9 516.0 458.6 502.7 461.7 495.4 C 464.1 489.4 472.4 481.9 478.1 480.5 C 486.0 478.6 497.2 481.0 502.3 485.8 C 508.1 491.3 511.0 505.7 508.2 515.8 C 507.6 518.1 505.5 522.4 503.6 525.4 C 498.8 533.0 492.4 535.8 481.6 535.0 Z M 402.5 534.0 L 403.0 515.5 C 403.0 493.6 401.7 491.1 395.0 492.4 C 391.3 493.0 391.0 492.9 391.0 490.0 C 391.0 488.3 392.4 485.6 394.2 483.6 C 397.7 479.9 403.3 479.2 408.3 481.7 C 413.6 484.4 414.4 488.2 414.1 508.9 C 414.0 519.3 413.4 528.3 412.8 528.9 C 412.2 529.5 411.7 530.9 411.7 532.1 C 411.7 533.7 410.8 534.0 407.1 534.0 L 402.5 534.0 Z M 516.2 534.0 L 516.0 509.8 L 516.0 485.4 L 519.9 482.9 C 522.6 480.9 524.0 480.6 525.6 481.5 C 527.5 482.5 527.7 484.1 527.7 495.0 C 527.7 504.2 528.1 507.8 529.3 508.8 C 531.3 510.5 532.0 509.6 537.9 497.8 C 540.5 492.6 544.2 486.7 546.1 484.8 C 549.1 481.7 550.3 481.7 554.4 482.0 L 559.0 482.0 L 560.0 504.3 C 560.4 530.6 559.2 534.0 552.4 534.0 L 548.0 534.0 L 548.0 519.3 C 548.0 510.6 547.9 504.1 547.3 503.7 C 546.6 503.3 544.1 507.0 541.7 512.0 C 531.4 532.8 530.3 534.0 522.5 534.0 L 516.2 534.0 Z M 487.5 522.3 C 488.6 522.1 489.5 521.6 490.8 520.7 C 495.9 516.9 497.1 513.6 496.2 506.0 C 495.5 500.5 494.6 498.6 491.5 495.5 C 488.5 492.4 486.8 491.7 483.1 491.7 C 476.6 491.7 474.8 494.7 474.5 505.9 C 474.3 516.2 476.6 520.3 483.4 521.9 C 485.2 522.4 486.4 522.5 487.5 522.3 Z M 487.5 522.3 "></path></clipPath><g clip-path="url(#clip-9)"><image xlink:href="../../23FA9627-2129-429F-B2C7-641C00C1D996/assets/E69B55FFF01D43156A4B406B71351D58.png" width="255.00" height="140.00" transform="matrix(1.00, 0.00, -0.00, -1.00, 349.0, 578.0)"></image></g></g></g></g><text xml:space="preserve" font-family="GillSans-Light" font-size="31.2" fill="#525252" transform="matrix(1.00, 0.00, -0.00, -1.00, 380.6, 376.1)">•</text><text xml:space="preserve" font-family="GillSans-Light" font-size="38.0" fill="#525252" transform="matrix(1.00, 0.00, -0.00, -1.00, 415.0, 374.0)">J</text><text xml:space="preserve" font-family="GillSans-Light" font-size="38.0" fill="#525252" transform="matrix(1.00, 0.00, -0.00, -1.00, 422.9, 374.0)">S</text><text xml:space="preserve" font-family="GillSans-Light" font-size="38.0" fill="#525252" transform="matrix(1.00, 0.00, -0.00, -1.00, 440.7, 374.0)">O</text><text xml:space="preserve" font-family="GillSans-Light" font-size="38.0" fill="#525252" transform="matrix(1.00, 0.00, -0.00, -1.00, 472.0, 374.0)">N</text><text xml:space="preserve" font-family="GillSans-Light" font-size="31.2" fill="#525252" transform="matrix(1.00, 0.00, -0.00, -1.00, 380.6, 295.1)">•</text><text xml:space="preserve" font-family="GillSans-Light" font-size="38.0" fill="#525252" transform="matrix(1.00, 0.00, -0.00, -1.00, 415.0, 293.0)">H</text><text xml:space="preserve" font-family="GillSans-Light" font-size="38.0" fill="#525252" transform="matrix(1.00, 0.00, -0.00, -1.00, 442.3, 293.0)">T</text><text xml:space="preserve" font-family="GillSans-Light" font-size="38.0" fill="#525252" transform="matrix(1.00, 0.00, -0.00, -1.00, 464.1, 293.0)">T</text><text xml:space="preserve" font-family="GillSans-Light" font-size="38.0" fill="#525252" transform="matrix(1.00, 0.00, -0.00, -1.00, 485.9, 293.0)">P</text><text xml:space="preserve" font-family="GillSans-Light" font-size="31.2" fill="#525252" transform="matrix(1.00, 0.00, -0.00, -1.00, 380.6, 214.1)">•</text><text xml:space="preserve" font-family="GillSans-Light" font-size="38.0" fill="#525252" transform="matrix(1.00, 0.00, -0.00, -1.00, 415.0, 212.0)">R</text><text xml:space="preserve" font-family="GillSans-Light" font-size="38.0" fill="#525252" transform="matrix(1.00, 0.00, -0.00, -1.00, 436.8, 212.0)">E</text><text xml:space="preserve" font-family="GillSans-Light" font-size="38.0" fill="#525252" transform="matrix(1.00, 0.00, -0.00, -1.00, 455.4, 212.0)">S</text><text xml:space="preserve" font-family="GillSans-Light" font-size="38.0" fill="#525252" transform="matrix(1.00, 0.00, -0.00, -1.00, 473.3, 212.0)">T</text><text xml:space="preserve" font-family="GillSans-Light" font-size="38.0" fill="#525252" transform="matrix(1.00, 0.00, -0.00, -1.00, 495.1, 212.0)">f</text><text xml:space="preserve" font-family="GillSans-Light" font-size="38.0" fill="#525252" transform="matrix(1.00, 0.00, -0.00, -1.00, 504.2, 212.0)">u</text><text xml:space="preserve" font-family="GillSans-Light" font-size="38.0" fill="#525252" transform="matrix(1.00, 0.00, -0.00, -1.00, 522.8, 212.0)">l</text></g></svg>